<svg width="14" height="20" viewBox="0 0 14 20" fill="none" xmlns="http://www.w3.org/2000/svg">
<path id="Union" fill-rule="evenodd" clip-rule="evenodd" d="M13.5713 8.91765C13.5713 5.96009 11.6175 3.45886 8.93022 2.63429C8.87895 1.6126 8.03433 0.799988 6.99991 0.799988C5.96549 0.799988 5.12087 1.6126 5.0696 2.63429C2.38228 3.45886 0.428467 5.96009 0.428467 8.91765V13.563C0.428467 14.6267 1.29082 15.4891 2.35458 15.4891H11.6452C12.709 15.4891 13.5713 14.6267 13.5713 13.563V8.91765ZM6.99991 19.2C8.06735 19.2 8.93268 18.3347 8.93268 17.2672V17.2206C8.93268 17.0329 8.78051 16.8807 8.59278 16.8807H5.40703C5.21931 16.8807 5.06713 17.0329 5.06713 17.2206V17.2672C5.06713 18.3347 5.93246 19.2 6.99991 19.2Z" fill="white"/>
</svg>
